<svg xmlns="http://www.w3.org/2000/svg" viewBox="0 0 500 500" width="500" height="500" preserveAspectRatio="xMidYMid meet" style="width: 100%; height: 100%; transform: translate3d(0px, 0px, 0px); content-visibility: visible;"><defs><clipPath id="__lottie_element_2"><rect width="500" height="500" x="0" y="0"></rect></clipPath><filter id="__lottie_element_55" filterUnits="objectBoundingBox" x="0%" y="0%" width="100%" height="100%"><feComponentTransfer in="SourceGraphic"><feFuncA type="table" tableValues="1.0 0.0"></feFuncA></feComponentTransfer></filter><mask id="__lottie_element_54" mask-type="alpha"><g filter="url(#__lottie_element_55)"><rect width="500" height="500" x="0" y="0" fill="#ffffff" opacity="0"></rect><g transform="matrix(1,0,0,1,163.1079864501953,227.8879852294922)" opacity="1" style="display: block;"><g opacity="1" transform="matrix(0.5579336881637573,0.8298855423927307,-0.8298855423927307,0.5579336881637573,171.81300354003906,171.81300354003906)"><path fill="rgb(255,255,255)" fill-opacity="1" d=" M2.1513853073120117,-51.305824279785156 C2.1513853073120117,-51.305824279785156 2.1513853073120117,-51.305824279785156 2.1513853073120117,-51.305824279785156 C8.365793228149414,-28.44707489013672 26.222333908081055,-10.586358070373535 49.08271789550781,-4.374491214752197 C52.6167106628418,-3.4144012928009033 52.6167106628418,1.598441481590271 49.08271789550781,2.559166431427002 C26.22296905517578,8.773574829101562 8.363252639770508,26.631114959716797 2.1513853073120117,49.49049758911133 C1.1912956237792969,53.02449035644531 -3.821547269821167,53.02449035644531 -4.7822723388671875,49.49049758911133 C-10.99668025970459,26.631750106811523 -28.85422134399414,8.77103328704834 -51.71360397338867,2.559166431427002 C-55.247596740722656,1.599076747894287 -55.247596740722656,-3.4137661457061768 -51.71360397338867,-4.374491214752197 C-28.854856491088867,-10.588898658752441 -10.994139671325684,-28.446439743041992 -4.7822723388671875,-51.305824279785156 C-3.8221824169158936,-54.839813232421875 1.1912956237792969,-54.839813232421875 2.1513853073120117,-51.305824279785156z"></path><path stroke-linecap="round" stroke-linejoin="round" fill-opacity="0" stroke="rgb(0,204,204)" stroke-opacity="1" stroke-width="16" d=" M2.1513853073120117,-51.305824279785156 C2.1513853073120117,-51.305824279785156 2.1513853073120117,-51.305824279785156 2.1513853073120117,-51.305824279785156 C8.365793228149414,-28.44707489013672 26.222333908081055,-10.586358070373535 49.08271789550781,-4.374491214752197 C52.6167106628418,-3.4144012928009033 52.6167106628418,1.598441481590271 49.08271789550781,2.559166431427002 C26.22296905517578,8.773574829101562 8.363252639770508,26.631114959716797 2.1513853073120117,49.49049758911133 C1.1912956237792969,53.02449035644531 -3.821547269821167,53.02449035644531 -4.7822723388671875,49.49049758911133 C-10.99668025970459,26.631750106811523 -28.85422134399414,8.77103328704834 -51.71360397338867,2.559166431427002 C-55.247596740722656,1.599076747894287 -55.247596740722656,-3.4137661457061768 -51.71360397338867,-4.374491214752197 C-28.854856491088867,-10.588898658752441 -10.994139671325684,-28.446439743041992 -4.7822723388671875,-51.305824279785156 C-3.8221824169158936,-54.839813232421875 1.1912956237792969,-54.839813232421875 2.1513853073120117,-51.305824279785156z"></path></g></g></g></mask><mask id="__lottie_element_59"><path fill="#ffffff" clip-rule="nonzero" d="M0,0  h500 v500 h-500 v-500  M162.57318115234375,70.19400024414062 C162.57318115234375,70.19400024414062 136.29270935058594,18.27918815612793 136.29270935058594,18.27918815612793 C136.29270935058594,18.27918815612793 108.86778259277344,57.48763656616211 108.86778259277344,57.48763656616211 C108.86778259277344,57.48763656616211 162.57318115234375,70.19400024414062 162.57318115234375,70.19400024414062" fill-opacity="1"></path></mask></defs><g clip-path="url(#__lottie_element_2)"><g mask="url(#__lottie_element_54)" style="display: block;"><g mask="url(#__lottie_element_59)" transform="matrix(0.9988415241241455,0.04812054708600044,-0.04812054708600044,0.9988415241241455,-2.16339111328125,65.23651123046875)" opacity="1"><g opacity="1" transform="matrix(1,0,0,1,260.781005859375,177.3350067138672)"><path stroke-linecap="round" stroke-linejoin="round" fill-opacity="0" stroke="rgb(0,0,0)" stroke-opacity="1" stroke-width="16" d=" M-110.78099822998047,-112.71399688720703 C-110.78099822998047,-112.71399688720703 -98.78199768066406,-112.72200012207031 -98.78199768066406,-112.72200012207031 C-98.78199768066406,-112.72200012207031 -171.88699340820312,-109.8290023803711 -171.88699340820312,-109.8290023803711 C-190.79200744628906,-109.1760025024414 -205.781005859375,-93.66000366210938 -205.781005859375,-74.73799896240234 C-205.781005859375,-74.73799896240234 -205.781005859375,74.1780014038086 -205.781005859375,74.1780014038086 C-205.781005859375,93.0739974975586 -190.82400512695312,108.58300018310547 -171.93600463867188,109.26899719238281 C-171.93600463867188,109.26899719238281 169.4010009765625,121.61599731445312 169.4010009765625,121.61599731445312 C189.27699279785156,122.33499908447266 205.781005859375,106.41699981689453 205.781005859375,86.52400207519531 C205.781005859375,86.52400207519531 205.781005859375,-86.55699920654297 205.781005859375,-86.55699920654297 C205.781005859375,-106.42400360107422 189.31100463867188,-122.33499908447266 169.4530029296875,-121.64900207519531 C169.4530029296875,-121.64900207519531 -110.88999938964844,-112.39399719238281 -110.88999938964844,-112.39399719238281"></path></g><g opacity="1" transform="matrix(1,0,0,1,260.781005859375,177.3350067138672)"><path stroke-linecap="round" stroke-linejoin="round" fill-opacity="0" stroke="rgb(51,204,204)" stroke-opacity="1" stroke-width="18" d=" M-110.78099822998047,-112.71399688720703 C-110.78099822998047,-112.71399688720703 -98.78199768066406,-112.72200012207031 -98.78199768066406,-112.72200012207031 C-98.78199768066406,-112.72200012207031 -171.88699340820312,-109.8290023803711 -171.88699340820312,-109.8290023803711 C-190.79200744628906,-109.1760025024414 -205.781005859375,-93.66000366210938 -205.781005859375,-74.73799896240234 C-205.781005859375,-74.73799896240234 -205.781005859375,-63.22999954223633 -205.781005859375,-46.612998962402344"></path></g></g></g><g transform="matrix(0.9988415241241455,0.04812054708600044,-0.04812054708600044,0.9988415241241455,25.484567642211914,189.6961212158203)" opacity="1" style="display: block;"><g opacity="1" transform="matrix(1.10345458984375,0,0,1.10345458984375,84.0459976196289,92.88200378417969)"><path stroke-linecap="round" stroke-linejoin="round" fill-opacity="0" stroke="rgb(0,0,0)" stroke-opacity="1" stroke-width="16" d=" M15.510000228881836,-26.97800064086914 C15.510000228881836,-26.97800064086914 2.5380001068115234,-37.88199996948242 -12.758999824523926,-33.27399826049805 C-26.80500030517578,-29.042999267578125 -28.768999099731445,-12.847000122070312 -18.607999801635742,-6.2220001220703125 C-18.607999801635742,-6.2220001220703125 -8.63599967956543,-1.7730000019073486 2.4230000972747803,2.305999994277954 C29.04599952697754,12.12600040435791 17.577999114990234,37.88199996948242 -3.8540000915527344,37.88199996948242 C-14.586999893188477,37.88199996948242 -23.5939998626709,33.18199920654297 -29.04599952697754,27.166000366210938"></path></g><g opacity="1" transform="matrix(1.0147442817687988,0,0,1.0147442817687988,167.29400634765625,94.61799621582031)"><path stroke-linecap="round" stroke-linejoin="round" fill-opacity="0" stroke="rgb(0,0,0)" stroke-opacity="1" stroke-width="16" d=" M36.145999908447266,0 C36.145999908447266,19.96299934387207 19.96299934387207,36.145999908447266 0,36.145999908447266 C-19.96299934387207,36.145999908447266 -36.145999908447266,19.96299934387207 -36.145999908447266,0 C-36.145999908447266,-19.96299934387207 -19.96299934387207,-36.145999908447266 0,-36.145999908447266 C19.96299934387207,-36.145999908447266 36.145999908447266,-19.96299934387207 36.145999908447266,0z"></path></g><g opacity="1" transform="matrix(1,0,0,1,271.68701171875,94.61799621582031)"><path stroke-linecap="round" stroke-linejoin="round" fill-opacity="0" stroke="rgb(0,0,0)" stroke-opacity="1" stroke-width="16" d=" M36.145999908447266,0 C36.145999908447266,19.96299934387207 19.96299934387207,36.145999908447266 0,36.145999908447266 C-19.96299934387207,36.145999908447266 -36.145999908447266,19.96299934387207 -36.145999908447266,0 C-36.145999908447266,-19.96299934387207 -19.96299934387207,-36.145999908447266 0,-36.145999908447266 C19.96299934387207,-36.145999908447266 36.145999908447266,-19.96299934387207 36.145999908447266,0z"></path></g></g><g transform="matrix(0.9988415241241455,0.04812054708600044,-0.04812054708600044,0.9988415241241455,311.5308532714844,206.7385711669922)" opacity="1" style="display: block;"><g opacity="1" transform="matrix(1,0,0,1,80.40399932861328,91.25299835205078)"><path stroke-linecap="round" stroke-linejoin="round" fill-opacity="0" stroke="rgb(0,0,0)" stroke-opacity="1" stroke-width="16" d=" M-25.40399932861328,36.25299835205078 C-25.40399932861328,36.25299835205078 -25.40399932861328,-36.117000579833984 -25.40399932861328,-36.117000579833984 C-25.40399932861328,-36.117000579833984 23.524999618530273,34.73500061035156 23.524999618530273,34.73500061035156 C24.43199920654297,36.04600143432617 25.40399932861328,35.40399932861328 25.40399932861328,33.810001373291016 C25.40399932861328,33.810001373291016 24.72599983215332,-36.25299835205078 24.72599983215332,-36.25299835205078"></path></g></g><g transform="matrix(0.9988415241241455,0.04812054708600044,-0.04812054708600044,0.9988415241241455,28.234582901000977,117.09033966064453)" opacity="1" style="display: block;"><g opacity="1" transform="matrix(1,0,0,1,73.41100311279297,77.59200286865234)"><path stroke-linecap="round" stroke-linejoin="round" fill-opacity="0" stroke="rgb(0,0,0)" stroke-opacity="1" stroke-width="16" d=" M16.81100082397461,-18.733999252319336 C13.204999923706055,-21.170000076293945 8.859000205993652,-22.590999603271484 4.179999828338623,-22.590999603271484 C-8.29699993133545,-22.590999603271484 -18.410999298095703,-12.477999687194824 -18.410999298095703,-0.0010000000474974513 C-18.410999298095703,12.47599983215332 -8.29699993133545,22.590999603271484 4.179999828338623,22.590999603271484 C9.246999740600586,22.590999603271484 13.414999961853027,20.922000885009766 16.57900047302246,18.104999542236328 C17.232999801635742,17.52199935913086 17.8439998626709,16.891000747680664 18.410999298095703,16.214000701904297"></path></g></g><g transform="matrix(0.9988415241241455,0.04812054708600044,-0.04812054708600044,0.9988415241241455,90.19672393798828,120.07545471191406)" opacity="1" style="display: block;"><g opacity="1" transform="matrix(1,0,0,1,77.59100341796875,77.59100341796875)"><path stroke-linecap="round" stroke-linejoin="round" fill-opacity="0" stroke="rgb(0,0,0)" stroke-opacity="1" stroke-width="16" d=" M22.591999053955078,0 C22.591999053955078,12.47700023651123 12.47700023651123,22.590999603271484 0.0010000000474974513,22.590999603271484 C-12.47599983215332,22.590999603271484 -22.591999053955078,12.47700023651123 -22.591999053955078,0 C-22.591999053955078,-12.47700023651123 -12.47599983215332,-22.590999603271484 0.0010000000474974513,-22.590999603271484 C12.47700023651123,-22.590999603271484 22.591999053955078,-12.47700023651123 22.591999053955078,0z"></path></g></g><g transform="matrix(0.9988415241241455,0.04812054708600044,-0.04812054708600044,0.9988415241241455,161.6241912841797,123.21922302246094)" opacity="1" style="display: block;"><g opacity="1" transform="matrix(1,0,0,1,78.81400299072266,77.85800170898438)"><path stroke-linecap="round" stroke-linejoin="round" fill-opacity="0" stroke="rgb(0,0,0)" stroke-opacity="1" stroke-width="16" d=" M-23.81399917602539,22.26799964904785 C-23.81399917602539,22.26799964904785 -15.873000144958496,-21.73200035095215 -15.873000144958496,-21.73200035095215 C-15.675000190734863,-22.761999130249023 -14.23799991607666,-22.857999801635742 -13.904000282287598,-21.86400032043457 C-13.904000282287598,-21.86400032043457 -0.9850000143051147,21.924999237060547 -0.9850000143051147,21.924999237060547 C-0.671999990940094,22.857999801635742 0.6510000228881836,22.85099983215332 0.9549999833106995,21.915000915527344 C0.9549999833106995,21.915000915527344 13.432000160217285,-21.856000900268555 13.432000160217285,-21.856000900268555 C13.755999565124512,-22.854000091552734 15.194000244140625,-22.773000717163086 15.402999877929688,-21.7450008392334 C15.402999877929688,-21.7450008392334 23.81399917602539,22.26799964904785 23.81399917602539,22.26799964904785"></path></g></g><g transform="matrix(0.9988415241241455,0.04812054708600044,-0.04812054708600044,0.9988415241241455,278.31976318359375,173.18955993652344)" opacity="1" style="display: block;"><g opacity="1" transform="matrix(1,0,0,1,0,0)"><path stroke-linecap="round" stroke-linejoin="round" fill-opacity="0" stroke="rgb(0,0,0)" stroke-opacity="1" stroke-width="16" d=" M11,11 C11,11 11,56.18299865722656 11,56.18299865722656"></path></g></g><g transform="matrix(0.9988415241241455,0.04812054708600044,-0.04812054708600044,0.9988415241241455,267.28759765625,128.53897094726562)" opacity="1" style="display: block;"><g opacity="1" transform="matrix(1,0,0,1,70.87799835205078,77.65799713134766)"><path stroke-linecap="round" stroke-linejoin="round" fill-opacity="0" stroke="rgb(0,0,0)" stroke-opacity="1" stroke-width="16" d=" M-15.876999855041504,22.658000946044922 C-15.876999855041504,22.658000946044922 -15.876999855041504,-22.573999404907227 -15.876999855041504,-22.573999404907227 C-15.876999855041504,-22.573999404907227 14.704000473022461,21.709999084472656 14.704000473022461,21.709999084472656 C15.270999908447266,22.52899932861328 15.876999855041504,22.128000259399414 15.876999855041504,21.131999969482422 C15.876999855041504,21.131999969482422 15.454999923706055,-22.658000946044922 15.454999923706055,-22.658000946044922"></path></g></g><g transform="matrix(0.9988415241241455,0.04812054708600044,-0.04812054708600044,0.9988415241241455,327.5674133300781,131.5111083984375)" opacity="1" style="display: block;"><g opacity="1" transform="matrix(1,0,0,1,76.0459976196289,77.59200286865234)"><path stroke-linecap="round" stroke-linejoin="round" fill-opacity="0" stroke="rgb(0,0,0)" stroke-opacity="1" stroke-width="16" d=" M14.175999641418457,-18.733999252319336 C10.569999694824219,-21.170000076293945 6.223999977111816,-22.590999603271484 1.5449999570846558,-22.590999603271484 C-10.932000160217285,-22.590999603271484 -21.04599952697754,-12.477999687194824 -21.04599952697754,-0.0010000000474974513 C-21.04599952697754,12.47599983215332 -10.932000160217285,22.590999603271484 1.5449999570846558,22.590999603271484 C14.022000312805176,22.590999603271484 21.04599952697754,12.47599983215332 21.04599952697754,-0.0010000000474974513 C21.04599952697754,-0.0010000000474974513 7.531000137329102,-0.0010000000474974513 7.531000137329102,-0.0010000000474974513"></path></g></g><g transform="matrix(0.9988415241241455,0.04812054708600044,-0.04812054708600044,0.9988415241241455,28.234582901000977,117.09033966064453)" opacity="1" style="display: block;"><g opacity="1" transform="matrix(1,0,0,1,73.41100311279297,77.59200286865234)"><path stroke-linecap="round" stroke-linejoin="round" fill-opacity="0" stroke="rgb(51,204,204)" stroke-opacity="1" stroke-width="18" d=" M7.8979997634887695,-22.28700065612793 C6.689000129699707,-22.48699951171875 5.447000026702881,-22.590999603271484 4.179999828338623,-22.590999603271484 C-8.29699993133545,-22.590999603271484 -18.410999298095703,-12.477999687194824 -18.410999298095703,-0.0010000000474974513 C-18.410999298095703,1.281999945640564 -18.304000854492188,2.5409998893737793 -18.097999572753906,3.7660000324249268"></path></g></g><g transform="matrix(0.9988415241241455,0.04812054708600044,-0.04812054708600044,0.9988415241241455,90.19672393798828,120.07545471191406)" opacity="1" style="display: block;"><g opacity="1" transform="matrix(1,0,0,1,77.59100341796875,77.59100341796875)"><path stroke-linecap="round" stroke-linejoin="round" fill-opacity="0" stroke="rgb(51,204,204)" stroke-opacity="1" stroke-width="16" d=" M22.591999053955078,0 C22.591999053955078,5.349999904632568 20.73200035095215,10.265999794006348 17.62299919128418,14.13599967956543"></path></g></g><g transform="matrix(0.9988415241241455,0.04812054708600044,-0.04812054708600044,0.9988415241241455,161.6241912841797,123.21922302246094)" opacity="1" style="display: block;"><g opacity="1" transform="matrix(1,0,0,1,78.81400299072266,77.85800170898438)"><path stroke-linecap="round" stroke-linejoin="round" fill-opacity="0" stroke="rgb(51,204,204)" stroke-opacity="1" stroke-width="18" d="M0 0"></path></g></g><g transform="matrix(0.9988415241241455,0.04812054708600044,-0.04812054708600044,0.9988415241241455,278.31976318359375,173.18955993652344)" opacity="1" style="display: block;"><g opacity="1" transform="matrix(1,0,0,1,0,0)"><path stroke-linecap="round" stroke-linejoin="round" fill-opacity="0" stroke="rgb(51,204,204)" stroke-opacity="1" stroke-width="18" d="M0 0"></path></g></g><g transform="matrix(0.9988415241241455,0.04812054708600044,-0.04812054708600044,0.9988415241241455,267.28759765625,128.53897094726562)" opacity="1" style="display: block;"><g opacity="1" transform="matrix(1,0,0,1,70.87799835205078,77.65799713134766)"><path stroke-linecap="round" stroke-linejoin="round" fill-opacity="0" stroke="rgb(51,204,204)" stroke-opacity="1" stroke-width="18" d="M0 0"></path></g></g><g transform="matrix(0.9988415241241455,0.04812054708600044,-0.04812054708600044,0.9988415241241455,327.5674133300781,131.5111083984375)" opacity="1" style="display: block;"><g opacity="1" transform="matrix(1,0,0,1,76.0459976196289,77.59200286865234)"><path stroke-linecap="round" stroke-linejoin="round" fill-opacity="0" stroke="rgb(51,204,204)" stroke-opacity="1" stroke-width="18" d="M0 0"></path></g></g><g transform="matrix(1,0,0,1,-46.98298645019531,-70.86100006103516)" opacity="1" style="display: block;"><g opacity="1" transform="matrix(0.5579336881637573,0.8298855423927307,-0.8298855423927307,0.5579336881637573,176.90199279785156,176.9010009765625)"><path stroke-linecap="round" stroke-linejoin="round" fill-opacity="0" stroke="rgb(0,204,204)" stroke-opacity="1" stroke-width="16" d=" M3.8535351753234863,-52.212039947509766 C3.8535351753234863,-52.212039947509766 3.8535351753234863,-52.212039947509766 3.8535351753234863,-52.212039947509766 C10.322112083435059,-28.41863441467285 28.90835189819336,-9.831123352050781 52.701393127441406,-3.3641815185546875 C56.3807373046875,-2.3645405769348145 56.3807373046875,2.8532590866088867 52.701393127441406,3.8535351753234863 C28.908987045288086,10.322112083435059 10.322112083435059,28.909622192382812 3.8535351753234863,52.7020263671875 C2.8538942337036133,56.379737854003906 -2.3635406494140625,56.379737854003906 -3.3631815910339355,52.7020263671875 C-3.3631815910339355,52.7020263671875 -3.3641815185546875,52.7020263671875 -3.3641815185546875,52.7020263671875 C-9.831758499145508,28.909622192382812 -28.41863441467285,10.322112083435059 -52.21267318725586,3.8535351753234863 C-55.890384674072266,2.8538942337036133 -55.890384674072266,-2.3645405769348145 -52.21267318725586,-3.3641815185546875 C-28.419269561767578,-9.831758499145508 -9.831758499145508,-28.41863441467285 -3.3641815185546875,-52.212039947509766 C-3.3641815185546875,-52.212039947509766 -3.3631815910339355,-52.212039947509766 -3.3631815910339355,-52.212039947509766 C-2.3635406494140625,-55.889747619628906 2.8538942337036133,-55.889747619628906 3.8535351753234863,-52.212039947509766z"></path></g></g><g transform="matrix(1,0,0,1,163.1079864501953,227.8879852294922)" opacity="1" style="display: block;"><g opacity="1" transform="matrix(0.5579336881637573,0.8298855423927307,-0.8298855423927307,0.5579336881637573,171.81300354003906,171.81300354003906)"><path stroke-linecap="round" stroke-linejoin="round" fill-opacity="0" stroke="rgb(0,204,204)" stroke-opacity="1" stroke-width="16" d=" M2.1513853073120117,-51.305824279785156 C2.1513853073120117,-51.305824279785156 2.1513853073120117,-51.305824279785156 2.1513853073120117,-51.305824279785156 C8.365793228149414,-28.44707489013672 26.222333908081055,-10.586358070373535 49.08271789550781,-4.374491214752197 C52.6167106628418,-3.4144012928009033 52.6167106628418,1.598441481590271 49.08271789550781,2.559166431427002 C26.22296905517578,8.773574829101562 8.363252639770508,26.631114959716797 2.1513853073120117,49.49049758911133 C1.1912956237792969,53.02449035644531 -3.821547269821167,53.02449035644531 -4.7822723388671875,49.49049758911133 C-10.99668025970459,26.631750106811523 -28.85422134399414,8.77103328704834 -51.71360397338867,2.559166431427002 C-55.247596740722656,1.599076747894287 -55.247596740722656,-3.4137661457061768 -51.71360397338867,-4.374491214752197 C-28.854856491088867,-10.588898658752441 -10.994139671325684,-28.446439743041992 -4.7822723388671875,-51.305824279785156 C-3.8221824169158936,-54.839813232421875 1.1912956237792969,-54.839813232421875 2.1513853073120117,-51.305824279785156z"></path></g></g></g></svg>